<?xml version="1.0" encoding="UTF-8"?>
<svg id="Layer_2" data-name="Layer 2" xmlns="http://www.w3.org/2000/svg" viewBox="0 0 1308.5 1311.63">
  <defs>
    <style>
      .cls-1 {
        fill: none;
      }

      .cls-2 {
        fill: #ded4ca;
      }
    </style>
  </defs>
  <g id="katman_1" data-name="katman 1">
    <ellipse class="cls-2" cx="653.51" cy="655.82" rx="653.51" ry="655.82"/>
    <path d="M833.24,538.95c2.75-3.11,7.65-1.22,11.31-1.76,12.79.23,25.58-.1,38.38.18-29.79,85.04-60.99,169.6-90.29,254.82-16.57,1.17-33.26.46-49.85.36,30.25-84.48,60.19-169.09,90.45-253.6h0Z"/>
    <g>
      <path d="M72.39,488.79l.89-.58,15.71,3.31.58.89-6.72,31.85,84.84,17.9.58.89-3.28,15.56-.89.58-84.84-17.9-6.72,31.85-.89.58-15.71-3.31-.58-.89,17.04-80.73Z"/>
      <path d="M102.47,457.04l.98-.42,28.66,11.54,16.52-41.05-28.66-11.54-.42-.98,5.99-14.89.98-.42,79.31,31.93.42.98-5.99,14.89-.98.42-34.37-13.84-16.52,41.05,34.37,13.84.42.98-5.94,14.75-.98.42-79.31-31.93-.42-.98,5.94-14.75Z"/>
      <path d="M150.44,355.03l1.04-.22,34.79,22.72c15.82,10.33,28.66,8.51,36.95-4.18s4.71-25.05-11.11-35.38l-34.79-22.72-.22-1.04,8.78-13.44,1.04-.22,37.8,24.69c22.98,15.01,27.27,37.52,13.82,58.12-13.45,20.6-35.79,25.72-58.77,10.71l-37.8-24.69-.22-1.04,8.69-13.31Z"/>
      <path d="M226.55,254.57c12.45-13.21,29.22-16.56,42.1-4.42,7.97,7.51,10.35,16.57,7.17,27.38l42.7,5.22.03,1.06-14,14.84-1.57.58-38.33-4.6-5.35,5.67,22.59,21.3.03,1.06-10.91,11.57-1.06.03-62.2-58.66-.03-1.06,18.83-19.97ZM247.07,288.77l7.61-8.08c4.63-4.91,5.94-10.89.59-15.93-5.24-4.94-11.13-3.28-15.76,1.63l-7.62,8.08,15.17,14.3Z"/>
      <path d="M317.36,204.02c-6.48-1.2-10.46-.92-14.47,2.23s-4.97,6.78-1.91,10.67c6.31,8.01,35.89-15.28,53.34,6.88,10.11,12.85,7.88,28.92-7.32,40.89-9.43,7.42-23.86,10.19-36.92,3.3l4.58-16.01,1.18-.93c9.46,4.01,15.61,2.6,19.85-.74,5.89-4.64,6.43-10.02,3.09-14.27-8.35-10.61-37.93,12.68-53.34-6.88-9.56-12.14-6.7-27.18,6.15-37.29,9.43-7.42,20.91-7.87,30.6-4.05l-3.63,15.27-1.18.93Z"/>
      <path d="M364.36,145.56c23.2-12.9,49.54-7.81,62.3,15.13s3.18,48-20.02,60.9l-25.56,14.21-1.02-.29-41.55-74.72.29-1.02,25.56-14.21ZM387.09,212.37l11.54-6.41c13.24-7.36,19.3-20.85,10.99-35.8-8.31-14.94-22.97-16.92-36.21-9.56l-11.54,6.41,25.22,45.36Z"/>
      <path d="M465.78,99.83l.96.46,61.16,68.99-.46.96-17.52,6.23-.96-.46-11.43-13.77-32.5,11.56-.16,17.89-.46.96-17.52,6.23-.96-.46,3.85-92.12.46-.96,15.55-5.53ZM465.48,155.82l20.35-7.24-19.93-23.8-.42,31.04Z"/>
      <path d="M515.46,85.04l1.62.43,25.49,25.1,13.6-33.09,1.32-1.04,18.81-3.85.89.58-22.66,52.4,7.75,37.92-.58.89-15.72,3.21-.89-.58-7.75-37.92-41.26-39.33.58-.89,18.81-3.85Z"/>
      <path d="M679.37,51.39c22.18.86,36,16.26,35.3,34.25-.7,17.99-15.67,32.27-37.85,31.4l-15.59-.61-1.5,38.52-.78.72-15.89-.62-.72-.78,4.02-103.42.63-.73,32.38,1.26ZM661.9,99.04l14.84.58c10.64.41,17.77-5.31,18.14-14.76s-6.3-15.56-16.94-15.97l-14.84-.58-1.19,30.73Z"/>
      <path d="M753.98,77.29l.62.86-13.33,84.45-.86.62-15.71-2.48-.62-.86,13.33-84.45.86-.62,15.71,2.48Z"/>
      <path d="M801.82,87.21l1.22,1.15,25.43,67.49,16.51-54.87.93-.5,15.37,4.63.5.93-24.64,81.87-.93.5-16.8-5.06-1.22-1.15-25.43-67.49-16.51,54.87-.93.5-15.23-4.58-.5-.93,24.64-81.87.93-.5,16.66,5.01Z"/>
      <path d="M952.49,149.1l.33,1.01-7.29,14.3-1.01.33-24.99-12.74-31.2,61.21-1.01.33-14.17-7.22-.33-1.01,31.2-61.21-24.99-12.74-.33-1.01,7.29-14.3,1.01-.33,65.49,33.38Z"/>
      <path d="M986.71,200.73c-.73-6.55-2.15-10.28-6.33-13.2s-7.93-2.79-10.76,1.27c-5.84,8.36,25.04,29.91,8.9,53.04-9.36,13.41-25.39,15.94-41.26,4.86-9.84-6.87-16.68-19.87-13.87-34.38l16.65-.27,1.23.86c-1.09,10.21,2.04,15.69,6.47,18.78,6.15,4.29,11.46,3.24,14.55-1.19,7.73-11.07-23.15-32.62-8.9-53.04,8.84-12.67,24.06-14.3,37.47-4.94,9.84,6.87,13.6,17.73,12.76,28.11l-15.67.96-1.23-.86Z"/>
    </g>
    <g>
      <path d="M266.81,956.1c13.49,17.29,10.67,37.53-3.35,48.46s-34.33,8.74-47.82-8.55l-9.48-12.15-30.02,23.42-1.04-.13-9.66-12.38.13-1.04,80.61-62.88h.95s19.68,25.24,19.68,25.24ZM219.72,973.3l9.02,11.57c6.47,8.29,15.33,10.02,22.69,4.28,7.36-5.74,7.72-14.67,1.25-22.96l-9.02-11.56-23.95,18.68Z"/>
      <path d="M319.45,1094.88c-16.7,18.66-45.59,19.84-64.36,3.04-18.88-16.9-20.79-45.64-4.09-64.3,16.7-18.66,45.48-19.94,64.36-3.04,18.77,16.8,20.79,45.64,4.09,64.3ZM265.58,1046.66c-10.08,11.26-9.58,27.81,1.57,37.79,11.04,9.88,27.65,8.64,37.73-2.62,10.08-11.26,9.47-27.91-1.57-37.79-11.15-9.98-27.65-8.64-37.73,2.62Z"/>
      <path d="M373.45,1078.76l.26,1.01-20.87,35.34c-9.49,16.07-7.12,28.66,5.77,36.27,12.89,7.61,24.93,3.54,34.42-12.54l20.87-35.34,1.01-.26,13.65,8.06.26,1.01-22.68,38.4c-13.79,23.35-35.81,28.58-56.73,16.22-20.92-12.36-26.97-34.17-13.18-57.52l22.68-38.4,1.01-.26,13.52,7.99Z"/>
      <path d="M471.63,1128.26c16.79,6.27,26.28,20.26,20.16,36.63-3.79,10.13-11.11,15.78-22.18,17.02l11.62,40.88-.95.43-18.88-7.05-1.13-1.21-10.5-36.66-7.22-2.7-10.73,28.73-.95.43-14.71-5.5-.43-.95,29.55-79.11.95-.44,25.4,9.49ZM448.36,1160.05l10.27,3.84c6.25,2.33,12.19,1.23,14.73-5.57,2.49-6.66-1.28-11.39-7.53-13.73l-10.27-3.84-7.21,19.29Z"/>
      <path d="M536.8,1148.08l.54.9-20.26,81.99-.9.54-15.25-3.77-.54-.9,20.26-81.99.9-.54,15.25,3.77Z"/>
      <path d="M573.2,1155.49l1.39.9,36.84,60.97,6.17-56.26.82-.66,15.76,1.73.66.82-9.2,83.95-.82.66-17.23-1.89-1.39-.9-36.84-60.97-6.17,56.26-.82.66-15.61-1.71-.66-.82,9.2-83.95.82-.66,17.08,1.87Z"/>
      <path d="M727.11,1183.31c-10.16-6.83-18.81-9.31-31.08-8.41-15.52,1.14-26.9,14.01-25.79,29.09,1.11,15.07,13.66,26.18,29.77,25,5.32-.39,11.29-2.02,14.94-4.96l-.91-12.41-14.48,1.07-.79-.68-1.11-15.07.68-.79,31.03-2.28.79.68,2.82,38.27c-7.53,8.73-19.82,13.34-31.64,14.21-26.45,1.95-48.76-16.61-50.6-41.59-1.84-24.97,17.66-46.61,43.97-48.55,13.15-.97,21.6.79,31.62,5.69l1.47,19.95-.68.79Z"/>
      <path d="M818.86,1138.45c-5.32-3.41-9.53-4.84-14.32-3.28-5.35,1.74-7.4,6.46-5.65,11.82,4.22,12.96,46.49-1.28,57.05,31.12,5.65,17.33-3.76,36.29-22.07,42.26-14.37,4.68-28.59.75-37.83-10.89l9.88-13.66,1.41-.46c6.97,8.01,13.75,10.17,20.94,7.82,8.31-2.71,12.2-10.37,9.36-19.1-6.06-18.59-48.09-3.65-57.05-31.12-4.87-14.93,3.29-30.06,18.37-34.97,11.55-3.77,21.6-.65,30.83,6.62l-9.51,13.38-1.41.46Z"/>
      <path d="M866.69,1112.79l.98.37,34.89,76.9-.37.98-14.3,6.49-.98-.37-34.89-76.9.37-.98,14.3-6.49Z"/>
      <path d="M899.86,1096.05l1.65-.16,66.69,25.05-30.01-47.99.24-1.02,13.44-8.4,1.02.24,44.77,71.61-.24,1.02-14.7,9.19-1.65.16-66.69-25.05,30.01,47.99-.24,1.02-13.32,8.33-1.02-.24-44.77-71.61.24-1.02,14.57-9.11Z"/>
      <path d="M1034.91,1024.99c-12.45,1.5-19.48,3.68-27.7,11.15-10.86,9.86-11.45,26.61-1.29,37.8s26.89,12.2,37.75,2.34c8.23-7.47,11.07-14.26,13.76-26.5l1.05.05,13.35,14.7c-2.98,9.72-6.68,16.67-16,25.14-18.65,16.93-47.45,16.07-64.38-2.57s-15.03-47.4,3.62-64.33c9.32-8.47,16.6-11.47,26.56-13.51l13.35,14.7-.05,1.05Z"/>
      <path d="M1062.06,950.91l1.04-.11,12.34,9.95.11,1.04-23.89,29.65,12,9.67,16.83-20.88,1.04-.11,12.34,9.95.11,1.04-16.83,20.88,14.42,11.62,26.68-33.11,1.04-.11,12.34,9.95.11,1.04-37,45.92-1.04.11-65.76-52.99-.11-1.04,34.21-42.46Z"/>
      <path d="M1097.78,909.73c-3.08-9.02-2.79-16.84.62-23.59,7.08-14.02,22.07-20.06,35.56-13.25,10.18,5.14,18.16,17.3,25.4,29.58l5.67,8.83,10.15-20.1,1-.33,14.15,7.14.33,1-23.5,46.56-1,.33-20.28-32.81c-4.68-7.5-9.93-19.12-19.19-23.79-5.29-2.67-10.4-.11-12.94,4.92-3.34,6.61-2.5,13.18,1.83,23.66l-1,.33-16.8-8.48Z"/>
      <path d="M1180.06,804.07c25.62,8.87,38.34,27.38,32.04,45.58-6.3,18.2-27.74,24.89-53.37,16.02-25.62-8.87-38.34-27.38-32.04-45.58,6.3-18.2,27.74-24.89,53.37-16.02ZM1164.65,848.59c16.38,5.67,28.41,3.09,31.07-4.61,2.67-7.7-5.19-17.16-21.57-22.83s-28.41-3.09-31.07,4.61c-2.67,7.7,5.19,17.16,21.57,22.83Z"/>
      <path d="M1149,783.2c-5.36-7.88-7.15-15.5-5.66-22.91,3.11-15.4,15.96-25.19,30.78-22.21,11.18,2.26,22.09,11.86,32.33,21.79l7.8,7.02,4.45-22.08.87-.58,15.54,3.13.58.87-10.31,51.12-.87.58-28.26-26.26c-6.5-6-14.65-15.8-24.81-17.85-5.81-1.17-10.06,2.66-11.17,8.18-1.46,7.26,1.08,13.37,8.04,22.33l-.87.58-18.44-3.72Z"/>
      <path d="M1200.38,659.54c27.05,1.79,44.21,16.28,42.94,35.5-1.27,19.22-20.19,31.33-47.24,29.55-27.06-1.79-44.21-16.28-42.94-35.5,1.27-19.22,20.18-31.33,47.24-29.55ZM1197.28,706.56c17.3,1.14,28.21-4.52,28.75-12.65s-9.54-15.18-26.84-16.32c-17.3-1.14-28.21,4.52-28.75,12.65s9.54,15.18,26.84,16.32Z"/>
    </g>
    <g>
      <g>
        <path d="M1140.75,478.6l30.29-94.8h-90.39s-15.81,49.03-25.42,78.57c22.76,47.85,36.91,99.81,41.72,152.59,11.22-31.6,21.47-60.4,29.6-83.11,2.75-3.11,7.65-1.22,11.31-1.76,12.79.06,38.38.18,38.38.18l19.52-51.73-55.02.06h.01Z"/>
        <path d="M922.67,836.39c41.81-117.39,83.57-234.8,125.36-352.2.21-.43,3.15-9.4,7.19-21.83-9.11-19.15-19.59-37.65-31.42-55.28-41.89-62.64-99.64-114.91-166.77-149.29-51.89-27.32-109.41-43.35-167.74-48.52-13.18-2.8-26.4.2-39.68.28-31.45,90.06-64.09,179.69-95.79,269.65,23.06.41,46.13-.33,69.17.36,16.85.69,34.51,7.72,43.81,22.45,10.65,16.64,10.06,37.97,3.36,56.02-31.35,88.2-63,176.3-94.27,264.56-27.68.38-55.35-.05-83.03.2-3.85-.08-7.85.38-11.52-1.1,35.14-96.94,69.47-194.22,104.1-291.34-16.51-.25-33.03.1-49.54-.18-2.55,5.28-4.33,10.88-6.24,16.44-31.86,89.6-63.99,179.13-95.75,268.79-1.5,2.29-1.12,7.29-4.71,7.31-26.35.1-52.73-.08-79.08.05-4.74-.05-9.58.49-14.19-.91,72.3-200.56,142.94-401.71,215.27-602.25-141.29,30.22-262.82,135.96-315.35,270.24-21.53,53.16-30.91,110.58-32.11,167.74.6,11.07,1.27,22.16,2.21,33.22,24.51-68.87,49.02-137.74,73.54-206.61.71-1.45,32.61-100.4,32.61-100.4h90.39l-30.29,94.8,55.02-.06-19.52,51.73s-25.59-.12-38.38-.18c-3.67.54-8.56-1.35-11.31,1.76-26.68,74.53-76.15,214.56-108.21,304.54h-6.99c23.45,52.71,57.11,100.9,98.8,140.79,54.94,53.11,123.86,91.54,197.81,110.73,71.99-201.33,143.58-402.81,215.29-604.24.71-1.45,2.17-4.38,2.88-5.86,44.27.43,88.56.08,132.85.2,14.52.25,29.44-1.35,43.55,3.03,16.26,4.38,31.4,16.08,36.39,32.62,3.7,13.05,1.12,26.94-3.52,39.4-28.26,82.52-58.18,164.45-87.36,246.61-7.24,21.4-29,34.81-51.02,35.58-34.5.64-69.04-.23-103.54.41-31.7,88.33-63.1,176.76-94.52,265.17,8.2,3.49,16.94.76,25.48,1.33,12.89.99,25.69-1.38,38.5-2.29,84.15-7.72,165.7-40.32,232.16-92.44,53.34-41.59,97.15-95.41,126.74-156.25,25.94-52.35,40.5-109.99,44.67-168.12-1.96-20.18-1.37-40.55-.43-60.78-.18-2.44-.39-4.88-.61-7.32-25.61,72.11-56.31,158.87-78.61,221.43h-95.68.03Z"/>
        <path d="M205.96,690.81c-17.27,48.53-34.54,97.06-51.83,145.58h88.69c-13.78-30.96-24.04-63.48-30.33-96.8-3.18-16.13-5.14-32.43-6.53-48.79h0Z"/>
      </g>
      <circle class="cls-1" cx="654.25" cy="654.25" r="654.25"/>
    </g>
  </g>
</svg>