<?xml version="1.0" encoding="UTF-8"?>
<svg id="Layer_2" xmlns="http://www.w3.org/2000/svg" version="1.1" viewBox="0 0 185.2 185.2">
  <!-- Generator: Adobe Illustrator 30.5.0, SVG Export Plug-In . SVG Version: 2.1.4 Build 138)  -->
  <rect width="185.2" height="185.2" fill="#fff"/>
  <path fill="#fff" d="M29.3,31h125.6v125.6H29.3V31Z"/>
  <path d="M117.7,76.4c.4-.4,1.1-.2,1.6-.2,1.8,0,3.6,0,5.4,0-4.2,11.9-8.5,23.7-12.6,35.7-2.3.2-4.7,0-7,0,4.2-11.8,8.4-23.7,12.7-35.5h0Z"/>
  <g>
    <g>
      <path d="M160.7,68l4.2-13.3h-12.7s-2.2,6.9-3.6,11c3.2,6.7,5.2,14,5.8,21.4,1.6-4.4,3-8.5,4.1-11.6.4-.4,1.1-.2,1.6-.2,1.8,0,5.4,0,5.4,0l2.7-7.2h-7.7s0,0,0,0Z"/>
      <path d="M130.2,118.1c5.9-16.4,11.7-32.9,17.6-49.3,0,0,.4-1.3,1-3.1-1.3-2.7-2.7-5.3-4.4-7.7-5.9-8.8-14-16.1-23.4-20.9-7.3-3.8-15.3-6.1-23.5-6.8-1.8-.4-3.7,0-5.6,0-4.4,12.6-9,25.2-13.4,37.8,3.2,0,6.5,0,9.7,0,2.4,0,4.8,1.1,6.1,3.1,1.5,2.3,1.4,5.3.5,7.8-4.4,12.3-8.8,24.7-13.2,37-3.9,0-7.7,0-11.6,0-.5,0-1.1,0-1.6-.2,4.9-13.6,9.7-27.2,14.6-40.8-2.3,0-4.6,0-6.9,0-.4.7-.6,1.5-.9,2.3-4.5,12.5-9,25.1-13.4,37.6-.2.3-.2,1-.7,1-3.7,0-7.4,0-11.1,0-.7,0-1.3,0-2-.1,10.1-28.1,20-56.2,30.1-84.3-19.8,4.2-36.8,19-44.2,37.8-3,7.4-4.3,15.5-4.5,23.5,0,1.5.2,3.1.3,4.7,3.4-9.6,6.9-19.3,10.3-28.9,0-.2,4.6-14.1,4.6-14.1h12.7l-4.2,13.3h7.7s-2.7,7.2-2.7,7.2c0,0-3.6,0-5.4,0-.5,0-1.2-.2-1.6.2-3.7,10.4-10.7,30-15.2,42.6h-1c3.3,7.4,8,14.1,13.8,19.7,7.7,7.4,17.3,12.8,27.7,15.5,10.1-28.2,20.1-56.4,30.1-84.6,0-.2.3-.6.4-.8,6.2,0,12.4,0,18.6,0,2,0,4.1-.2,6.1.4,2.3.6,4.4,2.3,5.1,4.6.5,1.8.2,3.8-.5,5.5-4,11.6-8.1,23-12.2,34.5-1,3-4.1,4.9-7.1,5-4.8,0-9.7,0-14.5,0-4.4,12.4-8.8,24.7-13.2,37.1,1.1.5,2.4.1,3.6.2,1.8.1,3.6-.2,5.4-.3,11.8-1.1,23.2-5.6,32.5-12.9,7.5-5.8,13.6-13.4,17.7-21.9,3.6-7.3,5.7-15.4,6.3-23.5-.3-2.8-.2-5.7,0-8.5,0-.3,0-.7,0-1-3.6,10.1-7.9,22.2-11,31h-13.4,0Z"/>
      <path d="M29.8,97.7c-2.4,6.8-4.8,13.6-7.3,20.4h12.4c-1.9-4.3-3.4-8.9-4.2-13.6-.4-2.3-.7-4.5-.9-6.8h0Z"/>
    </g>
    <circle fill="none" stroke="#000" stroke-miterlimit="10" stroke-width="2" cx="92.6" cy="92.6" r="91.6"/>
  </g>
  <g>
    <path d="M11.1,69.4h.1c0,0,2.2.4,2.2.4h0c0,.1-.9,4.6-.9,4.6l11.9,2.5h0c0,.1-.5,2.3-.5,2.3h-.1c0,0-11.9-2.4-11.9-2.4l-.9,4.5h-.1c0,0-2.2-.4-2.2-.4h0c0-.1,2.4-11.4,2.4-11.4Z"/>
    <path d="M15.3,65h.1c0,0,4,1.6,4,1.6l2.3-5.7-4-1.6h0c0-.1.8-2.2.8-2.2h.1c0,0,11.1,4.4,11.1,4.4h0c0,.1-.8,2.2-.8,2.2h-.1c0,0-4.8-1.9-4.8-1.9l-2.3,5.7,4.8,1.9h0c0,.1-.8,2.2-.8,2.2h-.1c0,0-11.1-4.4-11.1-4.4h0c0-.1.8-2.2.8-2.2Z"/>
    <path d="M22,50.7h.1s4.9,3.1,4.9,3.1c2.2,1.4,4,1.2,5.2-.6,1.2-1.8.7-3.5-1.6-5l-4.9-3.2h0c0-.1,1.2-2,1.2-2h.1s5.3,3.4,5.3,3.4c3.2,2.1,3.8,5.3,1.9,8.1s-5,3.6-8.2,1.5l-5.3-3.5h0c0-.1,1.2-2,1.2-2Z"/>
    <path d="M32.7,36.6c1.7-1.9,4.1-2.3,5.9-.6,1.1,1.1,1.5,2.3,1,3.8l6,.7h0c0,.1-2,2.2-2,2.2h-.2c0,0-5.4-.6-5.4-.6l-.7.8,3.2,3h0c0,.1-1.5,1.8-1.5,1.8h-.1s-8.7-8.2-8.7-8.2h0c0-.1,2.6-2.9,2.6-2.9ZM35.6,41.4l1.1-1.1c.6-.7.8-1.5,0-2.2-.7-.7-1.6-.5-2.2.2l-1.1,1.1,2.1,2Z"/>
    <path d="M45.4,29.6c-.9-.2-1.5-.1-2,.3-.6.4-.7.9-.3,1.5.9,1.1,5-2.1,7.5,1,1.4,1.8,1.1,4-1,5.7-1.3,1-3.3,1.4-5.2.5l.6-2.2h.2c1.3.4,2.2.2,2.8-.2.8-.6.9-1.4.4-2-1.2-1.5-5.3,1.8-7.5-1-1.3-1.7-.9-3.8.9-5.2,1.3-1,2.9-1.1,4.3-.6l-.5,2.1h-.2Z"/>
    <path d="M52,21.4c3.2-1.8,6.9-1.1,8.7,2.1s.4,6.7-2.8,8.5l-3.6,2h-.1s-5.8-10.5-5.8-10.5h0c0-.1,3.6-2.1,3.6-2.1ZM55.2,30.7l1.6-.9c1.9-1,2.7-2.9,1.5-5-1.2-2.1-3.2-2.4-5.1-1.3l-1.6.9,3.5,6.4Z"/>
    <path d="M66.2,15h.1c0,0,8.6,9.7,8.6,9.7h0c0,.1-2.5,1-2.5,1h-.1c0,0-1.6-2-1.6-2l-4.6,1.6v2.5s0,.1,0,.1l-2.5.9h-.1c0,0,.5-13,.5-13h0c0-.1,2.2-.9,2.2-.9ZM66.1,22.8l2.8-1-2.8-3.3v4.3Z"/>
    <path d="M73.1,12.9h.2c0,0,3.6,3.6,3.6,3.6l1.9-4.6h.2c0-.1,2.6-.7,2.6-.7h.1c0,0-3.2,7.4-3.2,7.4l1.1,5.3h0c0,.1-2.2.6-2.2.6h-.1c0,0-1.1-5.4-1.1-5.4l-5.8-5.5h0c0-.1,2.6-.7,2.6-.7Z"/>
    <path d="M96.1,8.2c3.1.1,5,2.3,4.9,4.8,0,2.5-2.2,4.5-5.3,4.4h-2.2c0,0-.2,5.3-.2,5.3h-.1c0,.1-2.2,0-2.2,0h-.1c0-.1.6-14.6.6-14.6h0c0-.1,4.5,0,4.5,0ZM93.6,14.9h2.1c1.5.1,2.5-.7,2.5-2,0-1.3-.9-2.2-2.4-2.2h-2.1c0,0-.2,4.2-.2,4.2Z"/>
    <path d="M106.5,11.8h0c0,.1-1.9,11.9-1.9,11.9h-.1c0,0-2.2-.3-2.2-.3h0c0-.1,1.9-11.9,1.9-11.9h.1c0,0,2.2.3,2.2.3Z"/>
    <path d="M113.2,13.2l.2.2,3.6,9.4,2.3-7.7h.1c0,0,2.2.6,2.2.6h0c0,.1-3.4,11.6-3.4,11.6h-.1c0,0-2.4-.6-2.4-.6l-.2-.2-3.6-9.4-2.3,7.7h-.1c0,0-2.1-.6-2.1-.6h0c0-.1,3.4-11.6,3.4-11.6h.1c0,0,2.3.6,2.3.6Z"/>
    <path d="M134.3,21.9h0c0,.1-1,2.1-1,2.1h-.1s-3.5-1.7-3.5-1.7l-4.4,8.6h-.1s-2-1-2-1h0c0-.1,4.4-8.7,4.4-8.7l-3.5-1.8h0c0-.1,1-2.1,1-2.1h.1s9.2,4.6,9.2,4.6Z"/>
    <path d="M139.1,29.1c-.1-.9-.3-1.4-.9-1.8-.6-.4-1.1-.4-1.5.2-.8,1.2,3.5,4.2,1.2,7.4-1.3,1.9-3.6,2.2-5.8.7-1.4-1-2.3-2.8-1.9-4.8h2.3s.2,0,.2,0c-.2,1.4.3,2.2.9,2.6.9.6,1.6.5,2-.2,1.1-1.6-3.2-4.6-1.2-7.4,1.2-1.8,3.4-2,5.2-.7,1.4,1,1.9,2.5,1.8,3.9h-2.2c0,.1-.2,0-.2,0Z"/>
  </g>
  <g>
    <path d="M37.7,136.4c1.9,2.5,1.5,5.3-.5,6.9-2,1.5-4.9,1.2-6.8-1.2l-1.3-1.7-4.3,3.3h-.1s-1.4-1.8-1.4-1.8h0c0-.1,11.4-9.1,11.4-9.1h.1s2.8,3.6,2.8,3.6ZM31,138.9l1.3,1.6c.9,1.2,2.2,1.4,3.2.6s1.1-2.1.2-3.3l-1.3-1.6-3.4,2.6Z"/>
    <path d="M45.1,156.1c-2.4,2.6-6.5,2.8-9.1.4-2.7-2.4-2.9-6.5-.6-9.1,2.4-2.6,6.4-2.8,9.1-.4,2.7,2.4,2.9,6.5.6,9.1ZM37.5,149.3c-1.4,1.6-1.4,3.9.2,5.4,1.6,1.4,3.9,1.2,5.4-.4,1.4-1.6,1.3-4-.2-5.4-1.6-1.4-3.9-1.2-5.3.4Z"/>
    <path d="M52.8,153.8h0c0,.1-3,5.2-3,5.2-1.3,2.3-1,4.1.8,5.1,1.8,1.1,3.5.5,4.9-1.8l3-5h.1s1.9,1.1,1.9,1.1h0c0,.1-3.2,5.6-3.2,5.6-2,3.3-5.1,4.1-8,2.3s-3.8-4.8-1.9-8.2l3.2-5.4h.1s1.9,1.1,1.9,1.1Z"/>
    <path d="M66.8,160.8c2.4.9,3.7,2.9,2.9,5.2-.5,1.4-1.6,2.2-3.1,2.4l1.7,5.8h-.1c0,0-2.7-.9-2.7-.9l-.2-.2-1.5-5.2-1-.4-1.5,4.1h-.1c0,0-2.1-.7-2.1-.7h0c0-.1,4.2-11.4,4.2-11.4h.1c0,0,3.6,1.3,3.6,1.3ZM63.5,165.4l1.5.5c.9.3,1.7.2,2.1-.8.4-.9-.2-1.6-1.1-1.9l-1.5-.5-1,2.7Z"/>
    <path d="M76,163.6h0c0,.1-2.9,11.8-2.9,11.8h-.1c0,0-2.2-.5-2.2-.5h0c0-.1,2.9-11.8,2.9-11.8h.1c0,0,2.2.5,2.2.5Z"/>
    <path d="M81.2,164.7h.2c0,.1,5.2,8.8,5.2,8.8l.9-8h.1c0,0,2.2.2,2.2.2h0c0,.1-1.3,12-1.3,12h-.1c0,0-2.4-.2-2.4-.2h-.2c0-.1-5.2-8.8-5.2-8.8l-.9,8h-.1c0,0-2.2-.1-2.2-.1h0c0-.1,1.3-12,1.3-12h.1c0,0,2.4.2,2.4.2Z"/>
    <path d="M102.9,168.6c-1.4-1-2.7-1.3-4.4-1.2-2.2.2-3.8,2-3.7,4.1s1.9,3.7,4.2,3.5c.8,0,1.6-.3,2.1-.7v-1.8c-.1,0-2.2.2-2.2.2h-.1c0,0-.2-2.2-.2-2.2h0c0-.1,4.4-.4,4.4-.4h.1c0,0,.4,5.5.4,5.5-1.1,1.2-2.8,1.9-4.5,2-3.8.3-6.9-2.4-7.2-5.9-.3-3.5,2.5-6.6,6.2-6.9,1.9-.1,3.1.1,4.5.8l.2,2.8h0Z"/>
    <path d="M115.9,162.3c-.8-.5-1.3-.7-2-.5-.8.2-1,.9-.8,1.7.6,1.8,6.6-.2,8.1,4.4.8,2.5-.5,5.1-3.1,6-2,.7-4.1.1-5.4-1.5l1.4-1.9h.2c1,1.1,1.9,1.4,3,1,1.2-.4,1.7-1.5,1.3-2.7-.9-2.6-6.8-.5-8.1-4.4-.7-2.1.5-4.3,2.6-5,1.6-.5,3.1,0,4.4.9l-1.3,1.9h-.2Z"/>
    <path d="M122.7,158.6h.1c0,0,4.9,11,4.9,11h0c0,.1-2,1.1-2,1.1h-.1c0,0-4.9-11-4.9-11h0c0-.1,2-1.1,2-1.1Z"/>
    <path d="M127.5,156.2h.2s9.5,3.5,9.5,3.5l-4.3-6.8h0c0-.1,1.9-1.3,1.9-1.3h.1s6.4,10.2,6.4,10.2h0c0,.1-2.1,1.4-2.1,1.4h-.2s-9.5-3.5-9.5-3.5l4.3,6.8h0c0,.1-1.9,1.3-1.9,1.3h-.1s-6.4-10.2-6.4-10.2h0c0-.1,2.1-1.4,2.1-1.4Z"/>
    <path d="M146.6,146.1c-1.8.2-2.8.5-3.9,1.6-1.5,1.4-1.6,3.8-.2,5.4,1.4,1.6,3.8,1.7,5.4.3,1.2-1.1,1.6-2,1.9-3.8h.1s1.9,2.1,1.9,2.1c-.4,1.4-.9,2.4-2.3,3.6-2.6,2.4-6.7,2.3-9.1-.4-2.4-2.6-2.1-6.7.5-9.1,1.3-1.2,2.4-1.6,3.8-1.9l1.9,2.1h0Z"/>
    <path d="M150.4,135.6h.1s1.8,1.4,1.8,1.4h0c0,.1-3.4,4.4-3.4,4.4l1.7,1.4,2.4-3h.1s1.8,1.4,1.8,1.4h0c0,.1-2.4,3.1-2.4,3.1l2,1.6,3.8-4.7h.1s1.8,1.4,1.8,1.4h0c0,.1-5.2,6.7-5.2,6.7h-.1s-9.3-7.5-9.3-7.5h0c0-.1,4.8-6.2,4.8-6.2Z"/>
    <path d="M155.5,129.8c-.4-1.3-.4-2.4,0-3.3,1-2,3.1-2.8,5-1.9,1.4.7,2.6,2.5,3.6,4.2l.8,1.3,1.4-2.9h.1s2,1,2,1h0c0,.1-3.3,6.7-3.3,6.7h-.1s-2.9-4.6-2.9-4.6c-.7-1.1-1.4-2.7-2.7-3.4-.8-.4-1.5,0-1.8.7-.5.9-.4,1.9.3,3.4h-.1s-2.4-1.2-2.4-1.2Z"/>
    <path d="M167.2,114.8c3.6,1.3,5.4,3.9,4.5,6.5s-3.9,3.5-7.6,2.3c-3.6-1.3-5.4-3.9-4.5-6.5s3.9-3.5,7.6-2.3ZM165,121.1c2.3.8,4,.4,4.4-.7.4-1.1-.7-2.4-3.1-3.2-2.3-.8-4-.4-4.4.7s.7,2.4,3.1,3.2Z"/>
    <path d="M162.7,111.8c-.8-1.1-1-2.2-.8-3.2.4-2.2,2.3-3.6,4.4-3.2,1.6.3,3.1,1.7,4.6,3.1l1.1,1,.6-3.1h.1c0,0,2.2.4,2.2.4h0c0,.1-1.5,7.4-1.5,7.4h-.1c0,0-4-3.6-4-3.6-.9-.8-2.1-2.2-3.5-2.5-.8-.2-1.4.4-1.6,1.2-.2,1,.2,1.9,1.1,3.2h-.1c0,0-2.6-.4-2.6-.4Z"/>
    <path d="M170,94.3c3.8.2,6.3,2.3,6.1,5-.2,2.7-2.9,4.4-6.7,4.2-3.8-.2-6.3-2.3-6.1-5,.2-2.7,2.9-4.4,6.7-4.2ZM169.6,100.9c2.5.2,4-.6,4.1-1.8,0-1.2-1.4-2.2-3.8-2.3-2.5-.2-4,.6-4.1,1.8,0,1.2,1.4,2.2,3.8,2.3Z"/>
  </g>
</svg>