<?xml version="1.0" encoding="UTF-8"?>
<svg id="Layer_2" data-name="Layer 2" xmlns="http://www.w3.org/2000/svg" viewBox="0 0 255.12 255.12">
  <defs>
    <style>
      .cls-1 {
        fill: #fff;
      }
    </style>
  </defs>
  <g id="Layer_1-2" data-name="Layer 1">
    <path d="M117.48,70.47h-11.93c-.17,0-.85.57-.97.81l-29.01,79.87h11.7c.27,0,1.4-1.04,1.46-1.44l28.75-79.25h0Z"/>
    <polygon points="131.36 13.91 129.32 20.25 129.32 20.25 133.04 20.34 131.36 13.91"/>
    <path d="M125.18,93.47c-.34.83-.49,1.88-.8,2.7-.22.57-.5.51-.67.86-.31.6-.25,1.28.27,1.69l14.32,4.5c1,.11,1.65-1.03,1.19-1.92l6.54-21.02c2.12-.13,2.43-2.48.98-3.73-.11-.09-.46-.2-.5-.3-.01-.04.07-.58.06-.71-.13-1.51-1.04-2.47-2.45-2.79-.1-.02-.59.03-.62.02-.05-.02-.52-.78-.72-.95-.19-.16-.24-.3-.47-.38l-.39-.14c-.37-.14-.94-.19-1.33-.16-.25.02-1.03.36-1.08.35-.09-.02-.35-.4-.46-.48-.89-.66-1.94-.9-2.99-.46-.22.09-.92.64-.97.64-.09,0-.71-.29-.92-.33-.9-.15-2.11.39-2.66,1.16-.21.29-.32.75-.45.93-.03.04-.75.24-.92.35-1.16.78-.89,2.67.4,3.03l-.67,2.14c-1.53-.35-2.86-1.24-4.45-.55-.63.27-1.32.68-1.54,1.34-1.23,3.67-2.18,6.38-3.14,9.82-.2.73.05,1.71.43,2.33.9,1.46,2.57,1.5,4.02,2.08ZM132.09,94.68l3.62-11.64c.33-.56.95-.74,1.5-.45.34.17.52.69.5,1.07-1.28,3.94-2.37,7.97-3.77,11.85-.75.76-1.92.24-1.86-.84ZM138.15,96.56c-.65,1.05-2.1.58-1.99-.66l3.61-11.6c.35-.55.94-.74,1.5-.45h0c.31.15.56.71.5,1.07l-3.62,11.64ZM131.68,81.74c.35-.53.94-.71,1.49-.41h0c.34.19.54.76.48,1.15l-3.56,11.44c-.56,1.11-2.04.8-2.05-.47l3.65-11.72ZM125.68,80.47c.57-1.1,2.59.17,3.43.28h0s-3.19,10.3-3.19,10.3c-.09.11-2.43-.67-2.62-.79-.28-.18-.39-.55-.4-.87l2.77-8.91Z"/>
    <path d="M85.56,97.17h-11.93c-.17,0-.85.57-.97.81l-5.67,15.28h-10.21c-.49,0-1.19,1.73-1.39,2.17-1.36,3-.2.68-2.75,6.2l-.15,1.07h11l-10.55,28.44h11.7c.27,0,1.4-1.04,1.46-1.44l19.46-52.55h0Z"/>
    <path d="M168.71,25.59c.5.18.87.01,1.06-.49l1.05-2.86c.18-.5.01-.87-.49-1.06l-4.27-1.57-1.62,4.41,4.27,1.57h0Z"/>
    <path d="M85.84,25.39l-1.14-2.54c-.22-.49-.6-.63-1.09-.42l-4.13,1.85,1.81,4.05,4.13-1.85c.49-.22.63-.6.42-1.09Z"/>
    <path d="M154.22,80.27l6.54,21.02c-.46.89.18,2.02,1.19,1.92l14.32-4.5c.52-.41.58-1.08.27-1.69-.18-.34-.46-.29-.67-.86-.31-.81-.45-1.87-.8-2.7,1.44-.58,3.12-.62,4.02-2.08.38-.62.64-1.6.43-2.33-.96-3.44-1.91-6.16-3.14-9.82-.22-.66-.91-1.07-1.54-1.34-1.59-.69-2.92.21-4.45.55l-.67-2.14c1.3-.36,1.56-2.25.4-3.03-.18-.12-.89-.31-.92-.35-.13-.18-.24-.64-.45-.93-.56-.77-1.76-1.31-2.66-1.16-.21.04-.83.33-.92.33-.06,0-.75-.54-.97-.64-1.05-.44-2.1-.19-2.99.46-.11.08-.38.47-.46.48-.05.01-.83-.32-1.08-.35-.39-.04-.65-.04-1.03.03l-.31.12c-.23.08-.66.36-.86.52-.21.17-.67.93-.72.95-.03.01-.51-.04-.62-.02-1.41.32-2.32,1.28-2.45,2.79-.01.13.07.67.06.71-.03.11-.39.21-.5.3-1.45,1.25-1.15,3.6.98,3.73ZM160.49,84.3l3.61,11.6c.1,1.24-1.34,1.71-1.99.66l-3.62-11.64c-.05-.36.19-.92.5-1.07h0c.57-.29,1.16-.09,1.5.45ZM162.53,83.66c-.02-.38.16-.9.5-1.07.56-.29,1.17-.11,1.5.45l3.62,11.64c.06,1.08-1.11,1.6-1.86.84-1.4-3.88-2.49-7.91-3.77-11.85ZM171.13,80.75c.84-.11,2.87-1.38,3.43-.28l2.77,8.91c0,.32-.12.69-.4.87-.19.12-2.53.9-2.62.79l-3.19-10.3h0ZM172.22,93.46c0,1.27-1.5,1.58-2.05.47l-3.56-11.44c-.06-.39.13-.97.48-1.15h0c.56-.3,1.14-.12,1.49.41l3.65,11.72Z"/>
    <path d="M117.77,24.71h0c.53-.06.78-.39.72-.92l-1.13-9.13c-.06-.53-.39-.78-.92-.72l-4.69.58,1.33,10.77,4.69-.58Z"/>
    <path d="M189.16,95.89l-20.43,55.26h12.64c.29,0,1.51-1.12,1.58-1.55l9.92-26.89h8.88c.28,0,1.27-.94,1.34-1.33l3.02-7.04.15-1.07h-9.91l6.73-18.25h-12.88c-.18,0-.92.62-1.05.88Z"/>
    <path d="M174.97,221.5c-.22-.47-.6-.61-1.07-.38l-3.27,1.54c-.47.22-.61.6-.38,1.07l3.92,8.3c.22.47.6.61,1.07.38l3.27-1.54c.47-.22.61-.6.38-1.07l-3.92-8.3Z"/>
    <path d="M144.4,230.24h3.62c.44,0,.8.36.8.8v9.18c0,.44-.36.8-.8.8h-3.62c-.44,0-.8-.36-.8-.8v-9.18c0-.44.36-.8.8-.8Z" transform="translate(-36.66 27.17) rotate(-9.44)"/>
    <path d="M111.47,150.6l13.59-37.33h-11.7c-.44,0-1.47,1.28-1.56,1.79l-13.05,36.1h11.93c.09,0,.66-.42.78-.56Z"/>
    <polygon points="203.09 95.01 203.09 95.02 203.09 95.02 203.09 95.01"/>
    <path d="M127.56,0C57.11,0,0,57.11,0,127.56s57.11,127.56,127.56,127.56,127.56-57.11,127.56-127.56S198.01,0,127.56,0ZM202.05,35.56l9.42,8.35-2.15,2.43-3.41-3.02h0s-9.42,10.62-9.42,10.62l-2.61-2.31,9.42-10.62-3.41-3.02,2.15-2.43ZM190.39,27.52l-1.12,13.46,6.49-9.96,2.74,1.79-9.52,14.6-3.14-2.05,1.12-13.46-6.49,9.96-2.74-1.79,9.52-14.6,3.14,2.05ZM182.42,23.06l-7.75,15.62-3.12-1.55,7.75-15.62,3.12,1.55ZM163.92,15.32l8.36,3.08h0c1.91.7,2.74,2.51,2.04,4.41l-1.52,4.14c-.7,1.91-2.51,2.74-4.41,2.04l-5.09-1.87-2.12,5.77-3.27-1.2,6.02-16.36ZM143.31,10.93l2.12,7.87,4.39-6.87,3.78.58-7.05,10.46-.92,5.96-3.45-.53h0s.92-5.96.92-5.96l-3.58-12.09,3.78.58ZM129.45,10.03l4.07.1,5.18,17.57-3.75-.09-1.04-3.95-5.64-.14-1.26,3.89h0s-3.61-.08-3.61-.08l6.05-17.29ZM116.9,10.57c2.02-.25,3.58.97,3.84,2.99l1.29,10.48c.25,2.02-.97,3.58-2.99,3.83l-9.01,1.11-2.14-17.3,9.01-1.11ZM94.12,15l4.95-1.38c1.96-.55,3.69.43,4.23,2.39l.55,1.96-3.27.91-.36-1.31c-.14-.51-.5-.71-1.01-.57l-3.36.94c-.51.14-.71.5-.57,1.01l.44,1.59c.14.51.47.6,1.01.57l4.6-.28c1.93-.11,3.77.56,4.3,2.42l.84,3.03c.55,1.96-.43,3.69-2.39,4.23l-5.22,1.46c-1.96.55-3.69-.43-4.23-2.39l-.6-2.15,3.27-.91.42,1.49c.14.51.5.71,1.01.57l3.64-1.02c.51-.14.71-.5.57-1.01l-.49-1.77c-.14-.51-.47-.6-1.01-.57l-4.6.28c-1.93.11-3.77-.56-4.3-2.42l-.79-2.85c-.55-1.96.43-3.69,2.39-4.23ZM83.06,19.07c1.86-.83,3.71-.12,4.54,1.74l1.67,3.74c.67,1.5.34,3.01-.82,3.97l5.35,4.85-3.43,1.53h0s0,0,0,0h0s-5.2-4.76-5.2-4.76l-2.57,1.15,2.64,5.9-3.18,1.42-7.11-15.92,8.11-3.63ZM62.5,30.17l7.25,11.29c.29.45.69.53,1.14.25l3.22-2.07c.45-.29.53-.69.25-1.14l-7.25-11.29,2.94-1.88,7.62,11.86c1.1,1.71.68,3.65-1.04,4.75l-4.69,3.01c-1.71,1.1-3.65.68-4.75-1.04l-7.62-11.86,2.94-1.88ZM45.36,44.04h0s2.61-2.31,2.61-2.31l4.56,5.14,4.49-3.98-4.56-5.15,2.61-2.31,11.57,13.05-2.61,2.31-4.82-5.44-4.49,3.98,4.82,5.44-2.61,2.31-11.57-13.04h0s0,0,0,0ZM34.15,56.88l8.11-9.63,2.48,2.09-2.93,3.48,10.85,9.14-2.25,2.67-10.85-9.14-2.93,3.48-2.48-2.09ZM83.19,229.05l-5.61-2.79-1.73,3.47,6.93,3.45-1.43,2.88-9.98-4.96,7.59-15.25,9.98,4.96h0l-1.43,2.88-6.93-3.45-1.56,3.14,5.61,2.79-1.43,2.88ZM100.34,228.24l-.64,1.88-3.14-1.07.43-1.25h0c.17-.49,0-.85-.5-1.02l-3.22-1.1c-.49-.17-.85,0-1.02.5l-.52,1.52c-.17.49.05.74.5,1.02l3.86,2.31c1.62.97,2.74,2.53,2.13,4.32l-.99,2.91c-.64,1.88-2.38,2.74-4.26,2.1l-5.02-1.7c-1.88-.64-2.74-2.38-2.1-4.26l.7-2.06,3.14,1.07-.49,1.43c-.17.49,0,.85.5,1.02l3.5,1.19c.49.17.85,0,1.02-.5l.58-1.7c.17-.49-.05-.74-.5-1.02l-3.86-2.31c-1.62-.97-2.74-2.53-2.13-4.32l.93-2.73c.64-1.88,2.38-2.74,4.26-2.1l4.75,1.61c1.88.64,2.74,2.38,2.1,4.26ZM109.57,230.11l-2.7,13.6-3.34-.66,2.7-13.6-4.36-.87.62-3.11,12.07,2.4-.62,3.11-4.36-.87h0ZM115.4,244.95l-3.29-.4.42-3.43,3.29.4-.42,3.43ZM125.84,245.75l-.17-5.72c-.05-1.89,1.53-2.84,3.31-3.5l4.03-1.54c.61-.23.94-.36.92-.97l-.04-1.47c-.02-.61-.36-.94-.97-.92l-3.03.09c-.61.02-.94.36-.92.97l.03,1.09h0s-3.31.1-3.31.1l-.05-1.85c-.05-1.89,1.41-3.45,3.31-3.5l4.82-.14c1.89-.05,3.45,1.41,3.5,3.31l.09,2.98c.05,1.89-1.53,2.84-3.31,3.5l-4.03,1.54c-.61.23-.94.36-.92.97l.05,1.75,8.47-.25.09,3.22-11.87.34ZM150.25,243.69l-5.25.87h0c-1.96.33-3.54-.8-3.87-2.76l-1.72-10.36c-.32-1.96.8-3.54,2.76-3.87l5.25-.87c1.96-.32,3.54.8,3.87,2.76l1.72,10.36c.32,1.96-.8,3.54-2.76,3.87ZM157.69,242.05l-1.71-5.47c-.56-1.81.7-3.14,2.24-4.27l3.46-2.57c.52-.39.8-.6.62-1.18l-.44-1.4c-.18-.59-.6-.8-1.18-.62l-2.89.9c-.59.18-.8.6-.62,1.19l.32,1.04h0s-3.16.98-3.16.98l-.55-1.76c-.56-1.81.43-3.7,2.24-4.27l4.61-1.44c1.81-.56,3.7.43,4.27,2.24l.89,2.85c.56,1.81-.7,3.14-2.24,4.27l-3.46,2.57c-.52.39-.8.6-.62,1.18l.52,1.67,8.08-2.52.96,3.07-11.34,3.54ZM180.64,233.43l-4.81,2.27c-1.8.85-3.62.19-4.47-1.6l-4.48-9.5c-.85-1.8-.19-3.62,1.6-4.47l4.81-2.27c1.8-.85,3.62-.19,4.47,1.6l4.48,9.5c.85,1.8.19,3.62-1.6,4.47ZM127.56,218.27c-50.1,0-90.71-40.61-90.71-90.71S77.46,36.85,127.56,36.85s90.71,40.61,90.71,90.71-40.61,90.71-90.71,90.71ZM217.75,59.1l-2.21-2.57,1.03-.88h0c.4-.35.43-.76.09-1.16l-2.27-2.64c-.35-.4-.76-.43-1.16-.09l-1.25,1.07c-.4.35-.34.68-.09,1.16l2.2,4.05c.92,1.7,1.1,3.66-.37,4.92l-2.39,2.05c-1.54,1.33-3.52,1.18-4.85-.37l-3.54-4.11c-1.33-1.54-1.18-3.52.37-4.85l1.69-1.45,2.21,2.57-1.18,1.01c-.4.35-.43.76-.09,1.16l2.46,2.86c.35.4.76.43,1.16.09l1.4-1.2c.4-.35.34-.68.09-1.16l-2.2-4.05c-.92-1.7-1.1-3.66.37-4.92l2.24-1.93c1.54-1.33,3.52-1.18,4.85.37l3.35,3.89c1.33,1.54,1.18,3.52-.37,4.85l-1.54,1.33Z"/>
    <path d="M148.25,113.27h-11.93c-.25,0-1.07.76-1.12,1.11-8.74,25.36-18.81,50.3-27.53,75.66-.43,1.25-.98,2.6-1.11,3.9h11.7c.09,0,.66-.42.78-.56l29.2-80.13h0Z"/>
    <path d="M171.44,113.26h-11.93c-.49,0-1.2,1.73-1.39,2.17-4.69,11.16-7.9,23.43-12.61,34.64l-.15,1.07h11.7c.28,0,1.27-.94,1.34-1.33l12.89-35.48.15-1.07Z"/>
    <polygon class="cls-1" points="90.38 34.9 90.38 34.9 90.37 34.9 90.38 34.9"/>
    <polygon class="cls-1" points="45.36 44.04 45.36 44.05 45.36 44.04 45.36 44.04"/>
    <polygon class="cls-1" points="125.61 97.13 137.6 100.85 138.08 99.5 126.02 95.88 125.61 97.13"/>
    <polygon class="cls-1" points="174.39 96.84 162.41 100.56 161.92 99.21 173.99 95.58 174.39 96.84"/>
    <polygon class="cls-1" points="143.85 81.71 131.77 78.05 131.34 79.46 143.38 83.13 143.85 81.71"/>
    <polygon class="cls-1" points="156 81.03 168.08 77.37 168.51 78.78 156.47 82.45 156 81.03"/>
    <path class="cls-1" d="M144.85,77.55c-.27-.45.31-1.62-1.07-2.21-.57-.25-1.13.39-2.41-1.14-.56-.67-1.66-1.01-2.61-.68s-.98-.39-1.93-.71-1.18.39-2.91.07c-1.47-.27-1.8,1.94-1.58,2.42s1.76.65,3.06.93,3.44.66,4.4,1.34,4.21,1.58,4.59,1.4.74-.97.47-1.42Z"/>
    <path class="cls-1" d="M155,76.97c.29-.44-.23-1.63,1.17-2.16.58-.22,1.11.44,2.46-1.03.59-.64,1.7-.93,2.64-.56s1-.34,1.96-.63,1.17.44,2.91.2c1.48-.2,1.71,2.02,1.47,2.49s-1.79.57-3.1.79-3.47.5-4.46,1.14-4.27,1.39-4.65,1.19-.69-1-.4-1.44Z"/>
  </g>
</svg>