<?xml version="1.0" encoding="UTF-8"?>
<svg id="Layer_2" data-name="Layer 2" xmlns="http://www.w3.org/2000/svg" viewBox="0 0 186.41 235.71">
  <defs>
    <style>
      .cls-1 {
        fill: #231f20;
      }

      .cls-2 {
        fill: #fff;
      }

      .cls-3 {
        fill: #010101;
      }
    </style>
  </defs>
  <g id="Layer_1-2" data-name="Layer 1">
    <path class="cls-1" d="M83.34,60.44h-11.93c-.17,0-.85.57-.97.81l-29.01,79.87h11.7c.27,0,1.4-1.04,1.46-1.44l28.75-79.25h0Z"/>
    <path d="M51.41,87.14h-11.93c-.17,0-.85.57-.97.81l-5.67,15.28h-10.21c-.49,0-1.19,1.73-1.39,2.17-1.36,3-.2.68-2.75,6.2l-.15,1.07h11l-10.55,28.44h11.7c.27,0,1.4-1.04,1.46-1.44l19.46-52.55h0Z"/>
    <path d="M155.01,85.86l-20.43,55.26h12.64c.29,0,1.51-1.12,1.58-1.55l9.92-26.89h8.88c.28,0,1.27-.94,1.34-1.33l3.02-7.04.15-1.07h-9.91l6.73-18.25h-12.88c-.18,0-.92.62-1.05.88Z"/>
    <path d="M77.32,140.57l13.59-37.33h-11.7c-.44,0-1.47,1.28-1.56,1.79l-13.05,36.1h11.93c.09,0,.66-.42.78-.56Z"/>
    <polygon points="168.94 84.98 168.94 84.98 168.94 84.98 168.94 84.98"/>
    <polygon class="cls-1" points="167.9 25.53 177.32 33.88 175.17 36.31 171.76 33.29 171.77 33.29 162.35 43.91 159.74 41.59 169.16 30.98 165.75 27.96 167.9 25.53"/>
    <polygon class="cls-1" points="156.24 17.49 155.12 30.95 161.62 20.99 164.35 22.78 154.83 37.38 151.69 35.34 152.81 21.87 146.31 31.83 143.57 30.04 153.1 15.44 156.24 17.49"/>
    <rect class="cls-1" x="134.12" y="18.31" width="17.44" height="3.49" transform="translate(61.4 139.1) rotate(-63.62)"/>
    <path class="cls-1" d="M138.13,8.36h0l-8.36-3.08-6.02,16.36,3.27,1.2,2.12-5.77,5.09,1.87c1.91.7,3.71-.13,4.41-2.04l1.52-4.14c.7-1.91-.13-3.71-2.04-4.41ZM136.67,12.21l-1.05,2.86c-.18.5-.56.67-1.06.49h0l-4.27-1.57,1.62-4.41,4.27,1.57c.5.18.67.56.49,1.06Z"/>
    <polygon class="cls-1" points="109.17 .89 111.29 8.76 115.68 1.89 119.46 2.47 112.41 12.93 111.49 18.89 108.05 18.36 108.04 18.36 108.96 12.4 105.38 .31 109.17 .89"/>
    <path class="cls-1" d="M99.36.1l-4.07-.1-6.05,17.29,3.61.09h0s1.26-3.9,1.26-3.9l5.64.14,1.04,3.95,3.75.09L99.36.1ZM95.17,10.22h0s2.05-6.35,2.05-6.35l1.68,6.44-3.73-.09Z"/>
    <path class="cls-1" d="M87.88,14.01l-1.29-10.48c-.25-2.02-1.82-3.24-3.84-2.99l-9.01,1.11,2.14,17.3,9.01-1.11c2.02-.25,3.24-1.81,2.99-3.83ZM83.62,14.68h0s-4.69.58-4.69.58l-1.33-10.77,4.69-.58c.53-.07.85.19.92.72l1.13,9.13c.06.53-.19.85-.72.92Z"/>
    <path class="cls-1" d="M59.97,4.97l4.95-1.38c1.96-.55,3.69.43,4.23,2.39l.55,1.96-3.27.91-.36-1.31c-.14-.51-.5-.71-1.01-.57l-3.36.94c-.51.14-.71.5-.57,1.01l.44,1.59c.14.51.47.6,1.01.57l4.6-.28c1.93-.11,3.77.56,4.3,2.42l.84,3.03c.55,1.96-.43,3.69-2.39,4.23l-5.22,1.46c-1.96.55-3.69-.43-4.23-2.39l-.6-2.15,3.27-.91.42,1.49c.14.51.5.71,1.01.57l3.64-1.02c.51-.14.71-.5.57-1.01l-.49-1.77c-.14-.51-.47-.6-1.01-.57l-4.6.28c-1.93.11-3.77-.56-4.3-2.42l-.79-2.85c-.55-1.96.43-3.69,2.39-4.23Z"/>
    <g>
      <path class="cls-1" d="M54.3,18.48c1.16-.97,1.5-2.47.82-3.97l-1.67-3.74c-.83-1.86-2.68-2.57-4.54-1.74l-8.11,3.63,7.11,15.92,3.18-1.42-2.64-5.9,2.57-1.15,5.2,4.76,3.43-1.53-5.35-4.85ZM51.27,16.45l-4.13,1.85-1.81-4.05,4.13-1.85c.48-.22.87-.07,1.09.42l1.14,2.54c.22.48.07.87-.42,1.09Z"/>
      <polygon class="cls-1" points="56.23 24.87 56.23 24.87 56.23 24.87 56.23 24.87"/>
    </g>
    <path class="cls-1" d="M28.36,20.13l7.25,11.29c.29.45.69.53,1.14.25l3.22-2.07c.45-.29.53-.69.25-1.14l-7.25-11.29,2.94-1.88,7.62,11.86c1.1,1.71.68,3.65-1.04,4.75l-4.69,3.01c-1.71,1.1-3.65.68-4.75-1.04l-7.62-11.86,2.94-1.88Z"/>
    <polygon class="cls-1" points="11.21 34.01 11.22 34.01 13.82 31.7 18.38 36.84 22.88 32.86 18.32 27.71 20.93 25.4 32.5 38.44 29.88 40.76 25.07 35.32 20.57 39.3 25.39 44.74 22.78 47.06 11.22 34.01 11.21 34.01 11.21 34.01"/>
    <polygon class="cls-1" points="0 46.85 8.11 37.22 10.59 39.31 7.66 42.79 18.51 51.93 16.26 54.6 5.41 45.46 2.48 48.94 0 46.85"/>
    <polygon class="cls-1" points="49.04 219.01 43.43 216.22 41.7 219.69 48.63 223.14 47.19 226.02 37.22 221.06 44.81 205.81 54.78 210.77 54.78 210.77 53.34 213.65 46.42 210.2 44.86 213.34 50.47 216.13 49.04 219.01"/>
    <path class="cls-1" d="M66.19,218.2l-.64,1.88-3.14-1.07.43-1.25h0c.17-.49,0-.85-.5-1.02l-3.22-1.1c-.49-.17-.85,0-1.02.5l-.52,1.52c-.17.49.05.74.5,1.02l3.86,2.31c1.62.97,2.74,2.53,2.13,4.32l-.99,2.91c-.64,1.88-2.38,2.74-4.26,2.1l-5.02-1.7c-1.88-.64-2.74-2.38-2.1-4.26l.7-2.06,3.14,1.07-.49,1.43c-.17.49,0,.85.5,1.02l3.5,1.19c.49.17.85,0,1.02-.5l.58-1.7c.17-.49-.05-.74-.5-1.02l-3.86-2.31c-1.62-.97-2.74-2.53-2.13-4.32l.93-2.73c.64-1.88,2.38-2.74,4.26-2.1l4.75,1.61c1.88.64,2.74,2.38,2.1,4.26Z"/>
    <polygon class="cls-1" points="75.42 220.08 72.72 233.68 69.37 233.01 72.08 219.41 67.72 218.55 68.34 215.44 80.4 217.83 79.78 220.94 75.42 220.07 75.42 220.08"/>
    <rect class="cls-1" x="78.09" y="231.35" width="3.45" height="3.31" transform="translate(-161.19 283.76) rotate(-82.98)"/>
    <path class="cls-1" d="M91.69,235.71l-.17-5.72c-.05-1.89,1.53-2.84,3.31-3.5l4.03-1.54c.61-.23.94-.36.92-.97l-.04-1.47c-.02-.61-.36-.94-.97-.92l-3.03.09c-.61.02-.94.36-.92.97l.03,1.09h0s-3.31.1-3.31.1l-.05-1.85c-.05-1.89,1.41-3.45,3.31-3.5l4.82-.14c1.89-.05,3.45,1.41,3.5,3.31l.09,2.98c.05,1.89-1.53,2.84-3.31,3.5l-4.03,1.54c-.61.23-.94.36-.92.97l.05,1.75,8.47-.25.09,3.22-11.87.34Z"/>
    <path class="cls-1" d="M118.87,229.79l-1.72-10.36c-.32-1.96-1.9-3.09-3.87-2.76l-5.25.87c-1.96.32-3.09,1.9-2.76,3.87l1.72,10.36c.32,1.96,1.9,3.09,3.87,2.76h0l5.25-.87c1.96-.32,3.09-1.9,2.76-3.87ZM114.73,230.62l-3.57.59c-.51.09-.84-.15-.92-.66l-1.51-9.06c-.09-.51.15-.84.66-.92l3.57-.59c.51-.09.84.15.92.66l1.51,9.06c.09.51-.15.84-.66.92Z"/>
    <path class="cls-1" d="M123.54,232.01l-1.71-5.47c-.56-1.81.7-3.14,2.24-4.27l3.46-2.57c.52-.39.8-.6.62-1.18l-.44-1.4c-.18-.59-.6-.8-1.18-.62l-2.89.9c-.59.18-.8.6-.62,1.19l.32,1.04h0s-3.16.98-3.16.98l-.55-1.76c-.56-1.81.43-3.7,2.24-4.27l4.61-1.44c1.81-.56,3.7.43,4.27,2.24l.89,2.85c.56,1.81-.7,3.14-2.24,4.27l-3.46,2.57c-.52.39-.8.6-.62,1.18l.52,1.67,8.08-2.52.96,3.07-11.34,3.54Z"/>
    <path class="cls-1" d="M148.1,218.92l-4.48-9.5c-.85-1.8-2.68-2.45-4.47-1.6l-4.81,2.27c-1.8.85-2.45,2.68-1.6,4.47l4.48,9.5c.85,1.8,2.68,2.45,4.47,1.6l4.81-2.27c1.8-.85,2.45-2.68,1.6-4.47ZM144.35,220.85l-3.27,1.54c-.47.22-.85.09-1.07-.38l-3.92-8.3c-.22-.47-.09-.85.38-1.07l3.27-1.54c.47-.22.85-.09,1.07.38l3.92,8.3c.22.47.09.85-.38,1.07Z"/>
    <path class="cls-1" d="M183.6,49.07l-2.21-2.57,1.03-.88h0c.4-.35.43-.76.09-1.16l-2.27-2.64c-.35-.4-.76-.43-1.16-.09l-1.25,1.07c-.4.35-.34.68-.09,1.16l2.2,4.05c.92,1.7,1.1,3.66-.37,4.92l-2.39,2.05c-1.54,1.33-3.52,1.18-4.85-.37l-3.54-4.11c-1.33-1.54-1.18-3.52.37-4.85l1.69-1.45,2.21,2.57-1.18,1.01c-.4.35-.43.76-.09,1.16l2.46,2.86c.35.4.76.43,1.16.09l1.4-1.2c.4-.35.34-.68.09-1.16l-2.2-4.05c-.92-1.7-1.1-3.66.37-4.92l2.24-1.93c1.54-1.33,3.52-1.18,4.85.37l3.35,3.89c1.33,1.54,1.18,3.52-.37,4.85l-1.54,1.33Z"/>
    <path class="cls-1" d="M93.41,26.82C43.31,26.82,2.7,67.43,2.7,117.53s40.61,90.71,90.71,90.71,90.71-40.61,90.71-90.71S143.51,26.82,93.41,26.82ZM93.41,204.83c-48.14,0-87.31-39.17-87.31-87.31S45.27,30.22,93.41,30.22s87.31,39.17,87.31,87.31-39.17,87.31-87.31,87.31Z"/>
    <path d="M114.1,103.23h-11.93c-.25,0-1.07.76-1.12,1.11-8.74,25.36-18.81,50.3-27.53,75.66-.43,1.25-.98,2.6-1.11,3.9h11.7c.09,0,.66-.42.78-.56l29.2-80.13h0Z"/>
    <path d="M137.29,103.23h-11.93c-.49,0-1.2,1.73-1.39,2.17-4.69,11.16-7.9,23.43-12.61,34.64l-.15,1.07h11.7c.28,0,1.27-.94,1.34-1.33l12.89-35.48.15-1.07Z"/>
    <polygon class="cls-2" points="56.23 24.87 56.23 24.87 56.23 24.87 56.23 24.87"/>
    <polygon class="cls-1" points="11.21 34.01 11.21 34.01 11.22 34.01 11.21 34.01"/>
    <g>
      <path class="cls-3" d="M149.02,75.29c-.84-2.51-3.56-3.87-6.07-3.04l-.13.04-.59-1.79c.37-.34.68-.74.91-1.2.5-1,.58-2.13.23-3.19-.35-1.06-1.1-1.92-2.1-2.42-1-.5-2.13-.58-3.19-.23-.59.19-1.04.52-1.49.84-.4.29-.78.56-1.25.72-.12.04-.51-.12-.81-.25-.79-.34-1.87-.8-3.28-.33-1.42.47-2.06,1.56-2.48,2.27-.14.24-.35.6-.45.65-.41.14-.88.15-1.38.16-.57.01-1.15.03-1.74.23-2.19.73-3.37,3.1-2.64,5.29.53,1.61,1.96,2.66,3.54,2.82l4.45,13.36c.5,1.49,1.89,2.44,3.38,2.44.37,0,.75-.06,1.12-.18l9.36-3.12c.9-.3,1.63-.94,2.06-1.79.43-.85.49-1.82.19-2.72l-.82-2.47.13-.04c1.22-.4,2.2-1.26,2.78-2.4.57-1.15.67-2.45.26-3.66ZM124.64,72.36c-.35-1.04.22-2.17,1.26-2.51.28-.09.68-.1,1.11-.12.61-.02,1.29-.03,2.01-.27.87-.29,1.3-1.03,1.65-1.62.4-.67.67-1.1,1.28-1.3.17-.06.34-.08.5-.08.38,0,.75.15,1.23.35.65.28,1.46.62,2.37.32.78-.26,1.36-.68,1.83-1.02.34-.24.63-.45.9-.54.5-.17,1.04-.13,1.52.11.47.24.83.64,1,1.15.17.5.13,1.04-.11,1.52-.24.47-.65.83-1.15,1-.27.09-.63.1-1.04.1-.58.01-1.3.03-2.08.28-.67.22-1.12.53-1.55.83-.47.33-.91.63-1.77.92-.86.29-1.4.31-1.97.33-.52.02-1.06.04-1.74.26-.78.26-1.36.68-1.83,1.02-.34.24-.63.45-.9.54-1.04.35-2.17-.22-2.51-1.26ZM144.52,85.61c-.16.33-.44.57-.79.69l-9.36,3.12c-.72.24-1.5-.15-1.73-.87l-4.35-13.05c.38-.19.73-.41,1.05-.64.4-.29.78-.56,1.25-.72.37-.12.68-.13,1.12-.15.64-.02,1.42-.05,2.59-.44,1.16-.39,1.81-.84,2.33-1.2.36-.25.61-.43.98-.55h0c.46-.15.93-.16,1.43-.17.4,0,.81-.02,1.23-.1l4.34,13.03c.11.35.09.72-.07,1.05ZM146.79,77.97c-.31.62-.85,1.08-1.51,1.3l-.13.04-1.64-4.94.13-.04c1.36-.45,2.84.29,3.29,1.65.22.66.17,1.37-.14,1.99Z"/>
      <path class="cls-3" d="M134.2,77.63c-.19-.57-.81-.89-1.39-.69-.57.19-.88.81-.69,1.39l2.34,7.02c.15.46.58.75,1.04.75.11,0,.23-.02.35-.06.57-.19.88-.81.69-1.39l-2.34-7.02Z"/>
      <path class="cls-3" d="M138.88,76.07c-.19-.57-.81-.89-1.39-.69-.57.19-.88.81-.69,1.39l2.34,7.02c.15.46.58.75,1.04.75.11,0,.23-.02.35-.06.57-.19.88-.81.69-1.39l-2.34-7.02Z"/>
    </g>
    <g>
      <path class="cls-3" d="M90.14,78.95c.57,1.15,1.56,2,2.78,2.4l.13.04-.82,2.47c-.3.9-.23,1.87.19,2.72.43.85,1.16,1.49,2.06,1.79l9.36,3.12c.37.12.75.18,1.12.18,1.49,0,2.89-.95,3.38-2.44l4.45-13.36c1.58-.17,3.01-1.22,3.54-2.82.73-2.19-.46-4.56-2.64-5.29-.59-.2-1.18-.21-1.74-.23-.5-.01-.96-.03-1.38-.16-.1-.05-.31-.41-.45-.65-.42-.72-1.05-1.8-2.48-2.27-1.41-.47-2.49,0-3.28.33-.31.13-.69.29-.81.25-.46-.15-.84-.43-1.25-.72-.44-.32-.9-.65-1.49-.84-1.06-.35-2.19-.27-3.19.23-1,.5-1.74,1.36-2.1,2.42-.35,1.06-.27,2.19.23,3.19.23.46.54.86.91,1.2l-.59,1.79-.13-.04c-2.51-.84-5.23.53-6.07,3.04-.4,1.22-.31,2.52.26,3.66ZM111.74,73.62c-.27-.09-.56-.3-.9-.54-.47-.34-1.05-.76-1.83-1.02-.67-.22-1.21-.24-1.74-.26-.57-.02-1.11-.04-1.97-.33-.86-.29-1.3-.59-1.77-.92-.43-.3-.88-.61-1.55-.83-.78-.26-1.5-.27-2.08-.28-.41,0-.77-.01-1.04-.1-.5-.17-.91-.52-1.15-1-.24-.47-.28-1.01-.11-1.52.17-.5.52-.91,1-1.15.47-.24,1.01-.27,1.52-.11.27.09.56.3.9.54.47.34,1.05.76,1.83,1.02.91.3,1.72-.04,2.37-.32.48-.21.85-.35,1.23-.35.16,0,.32.03.5.08.61.2.88.63,1.28,1.3.35.59.78,1.34,1.65,1.62.72.24,1.41.26,2.01.27.42.01.82.02,1.11.12,1.04.35,1.6,1.47,1.26,2.51s-1.47,1.6-2.51,1.26ZM94.3,84.56l4.34-13.03c.42.08.83.09,1.23.1.5,0,.96.02,1.43.17h0c.37.12.63.3.98.55.52.36,1.17.82,2.33,1.2,1.17.39,1.95.41,2.59.44.43.01.75.03,1.12.15.46.15.84.43,1.25.72.32.23.67.45,1.05.64l-4.35,13.05c-.24.72-1.01,1.11-1.73.87l-9.36-3.12c-.35-.12-.63-.36-.79-.69s-.19-.7-.07-1.05ZM91.96,75.98c.45-1.36,1.93-2.1,3.29-1.65l.13.04-1.64,4.94-.13-.04c-.66-.22-1.2-.68-1.51-1.3-.31-.62-.36-1.33-.14-1.99Z"/>
      <path class="cls-3" d="M104.7,77.63c.19-.57.81-.89,1.39-.69.57.19.88.81.69,1.39l-2.34,7.02c-.15.46-.58.75-1.04.75-.11,0-.23-.02-.35-.06-.57-.19-.88-.81-.69-1.39l2.34-7.02Z"/>
      <path class="cls-3" d="M100.02,76.07c.19-.57.81-.89,1.39-.69.57.19.88.81.69,1.39l-2.34,7.02c-.15.46-.58.75-1.04.75-.11,0-.23-.02-.35-.06-.57-.19-.88-.81-.69-1.39l2.34-7.02Z"/>
    </g>
  </g>
</svg>